{
	"asset":{
		"generator":"Khronos glTF Blender I/O v4.5.48",
		"version":"2.0"
	},
	"scene":0,
	"scenes":[
		{
			"name":"Scene",
			"nodes":[
				4
			]
		}
	],
	"nodes":[
		{
			"mesh":0,
			"name":"Cube",
			"rotation":[
				0,
				-0.7071067094802856,
				0,
				0.7071068286895752
			]
		},
		{
			"mesh":1,
			"name":"Icosphere.001"
		},
		{
			"mesh":2,
			"name":"Icosphere.002",
			"rotation":[
				0,
				-0.7071067094802856,
				0,
				0.7071068286895752
			],
			"translation":[
				1.5,
				0,
				0
			]
		},
		{
			"mesh":3,
			"name":"LegLeg.001",
			"rotation":[
				0,
				-0.7071067094802856,
				0,
				0.70710688829422
			],
			"scale":[
				1.207419991493225,
				1.207419991493225,
				1.207419991493225
			],
			"translation":[
				0.6987177729606628,
				-1.3944969177246094,
				-0.9031176567077637
			]
		},
		{
			"children":[
				0,
				1,
				2,
				3
			],
			"mesh":4,
			"name":"SheepTank",
			"rotation":[
				0,
				0.7071067094802856,
				0,
				0.7071068286895752
			],
			"translation":[
				0,
				0.003212571144104004,
				-0.05242347717285156
			]
		}
	],
	"materials":[
		{
			"doubleSided":true,
			"name":"Material.010",
			"pbrMetallicRoughness":{
				"baseColorFactor":[
					0.00395794864743948,
					0.00395794864743948,
					0.00395794864743948,
					1
				],
				"metallicFactor":0,
				"roughnessFactor":0.472222238779068
			}
		},
		{
			"doubleSided":true,
			"name":"Material.004",
			"pbrMetallicRoughness":{
				"baseColorFactor":[
					0.13737894594669342,
					0.13737894594669342,
					0.13737894594669342,
					1
				],
				"metallicFactor":0,
				"roughnessFactor":0.5
			}
		},
		{
			"doubleSided":true,
			"name":"Material.011",
			"pbrMetallicRoughness":{
				"baseColorFactor":[
					0.7993667125701904,
					0.24322256445884705,
					0.1225086897611618,
					1
				],
				"metallicFactor":0,
				"roughnessFactor":0.5
			}
		},
		{
			"doubleSided":true,
			"name":"Material.009",
			"pbrMetallicRoughness":{
				"baseColorTexture":{
					"index":0
				},
				"metallicFactor":0,
				"roughnessFactor":0.5
			}
		},
		{
			"doubleSided":true,
			"name":"Material.003",
			"pbrMetallicRoughness":{
				"baseColorFactor":[
					0,
					0,
					0,
					1
				],
				"metallicFactor":0,
				"roughnessFactor":0.5
			}
		},
		{
			"doubleSided":true,
			"name":"Material.012",
			"pbrMetallicRoughness":{
				"baseColorTexture":{
					"index":1
				},
				"metallicFactor":0,
				"roughnessFactor":0.5
			}
		}
	],
	"meshes":[
		{
			"name":"Cube",
			"primitives":[
				{
					"attributes":{
						"POSITION":0,
						"NORMAL":1,
						"TEXCOORD_0":2
					},
					"indices":3,
					"material":0
				}
			]
		},
		{
			"name":"Icosphere.002",
			"primitives":[
				{
					"attributes":{
						"POSITION":4,
						"NORMAL":5,
						"TEXCOORD_0":6
					},
					"indices":7,
					"material":1
				},
				{
					"attributes":{
						"POSITION":8,
						"NORMAL":9,
						"TEXCOORD_0":10
					},
					"indices":11,
					"material":2
				}
			]
		},
		{
			"name":"Icosphere",
			"primitives":[
				{
					"attributes":{
						"POSITION":12,
						"NORMAL":13,
						"TEXCOORD_0":14
					},
					"indices":15,
					"material":3
				}
			]
		},
		{
			"name":"Sphere.001",
			"primitives":[
				{
					"attributes":{
						"POSITION":16,
						"NORMAL":17,
						"TEXCOORD_0":18,
						"COLOR_0":19,
						"COLOR_1":20
					},
					"indices":21,
					"material":4
				}
			]
		},
		{
			"name":"Icosphere.001",
			"primitives":[
				{
					"attributes":{
						"POSITION":22,
						"NORMAL":23,
						"TEXCOORD_0":24
					},
					"indices":25,
					"material":5
				}
			]
		}
	],
	"textures":[
		{
			"sampler":0,
			"source":0
		},
		{
			"sampler":0,
			"source":1
		}
	],
	"images":[
		{
			"mimeType":"image/png",
			"name":"Untitled",
			"uri":"Untitled-1.png"
		},
		{
			"mimeType":"image/png",
			"name":"Untitled",
			"uri":"Untitled.png"
		}
	],
	"accessors":[
		{
			"bufferView":0,
			"componentType":5126,
			"count":2156,
			"max":[
				1.128000020980835,
				-0.4336044490337372,
				0.9503502249717712
			],
			"min":[
				-1.128000020980835,
				-1.100000023841858,
				-0.9503502249717712
			],
			"type":"VEC3"
		},
		{
			"bufferView":1,
			"componentType":5126,
			"count":2156,
			"type":"VEC3"
		},
		{
			"bufferView":2,
			"componentType":5126,
			"count":2156,
			"type":"VEC2"
		},
		{
			"bufferView":3,
			"componentType":5123,
			"count":4704,
			"type":"SCALAR"
		},
		{
			"bufferView":4,
			"componentType":5126,
			"count":86,
			"max":[
				1.9665907621383667,
				0.21602243185043335,
				0.5856301784515381
			],
			"min":[
				0.8559356331825256,
				-0.8973731398582458,
				-0.5851015448570251
			],
			"type":"VEC3"
		},
		{
			"bufferView":5,
			"componentType":5126,
			"count":86,
			"type":"VEC3"
		},
		{
			"bufferView":6,
			"componentType":5126,
			"count":86,
			"type":"VEC2"
		},
		{
			"bufferView":7,
			"componentType":5123,
			"count":366,
			"type":"SCALAR"
		},
		{
			"bufferView":8,
			"componentType":5126,
			"count":7,
			"max":[
				1.838710069656372,
				-0.36624154448509216,
				0.2522089183330536
			],
			"min":[
				1.759592890739441,
				-0.6206215023994446,
				-0.24769625067710876
			],
			"type":"VEC3"
		},
		{
			"bufferView":9,
			"componentType":5126,
			"count":7,
			"type":"VEC3"
		},
		{
			"bufferView":10,
			"componentType":5126,
			"count":7,
			"type":"VEC2"
		},
		{
			"bufferView":11,
			"componentType":5123,
			"count":18,
			"type":"SCALAR"
		},
		{
			"bufferView":12,
			"componentType":5126,
			"count":154,
			"max":[
				0.5109097361564636,
				0.21736422181129456,
				0.11026707291603088
			],
			"min":[
				-0.5109097361564636,
				-0.3297196328639984,
				-0.33367830514907837
			],
			"type":"VEC3"
		},
		{
			"bufferView":13,
			"componentType":5126,
			"count":154,
			"type":"VEC3"
		},
		{
			"bufferView":14,
			"componentType":5126,
			"count":154,
			"type":"VEC2"
		},
		{
			"bufferView":15,
			"componentType":5123,
			"count":480,
			"type":"SCALAR"
		},
		{
			"bufferView":16,
			"componentType":5126,
			"count":58,
			"max":[
				1.2420140504837036,
				1.4166285991668701,
				-0.6266803741455078
			],
			"min":[
				0.2741694748401642,
				1.251410722732544,
				-0.8478711843490601
			],
			"type":"VEC3"
		},
		{
			"bufferView":17,
			"componentType":5126,
			"count":58,
			"type":"VEC3"
		},
		{
			"bufferView":18,
			"componentType":5126,
			"count":58,
			"type":"VEC2"
		},
		{
			"bufferView":19,
			"componentType":5121,
			"count":58,
			"normalized":true,
			"type":"VEC4"
		},
		{
			"bufferView":20,
			"componentType":5123,
			"count":58,
			"normalized":true,
			"type":"VEC4"
		},
		{
			"bufferView":21,
			"componentType":5123,
			"count":72,
			"type":"SCALAR"
		},
		{
			"bufferView":22,
			"componentType":5126,
			"count":63,
			"max":[
				1.4716622829437256,
				1.160024642944336,
				1.1877700090408325
			],
			"min":[
				-1.4834235906600952,
				-1.1600244045257568,
				-1.1877700090408325
			],
			"type":"VEC3"
		},
		{
			"bufferView":23,
			"componentType":5126,
			"count":63,
			"type":"VEC3"
		},
		{
			"bufferView":24,
			"componentType":5126,
			"count":63,
			"type":"VEC2"
		},
		{
			"bufferView":25,
			"componentType":5123,
			"count":240,
			"type":"SCALAR"
		}
	],
	"bufferViews":[
		{
			"buffer":0,
			"byteLength":25872,
			"byteOffset":0,
			"target":34962
		},
		{
			"buffer":0,
			"byteLength":25872,
			"byteOffset":25872,
			"target":34962
		},
		{
			"buffer":0,
			"byteLength":17248,
			"byteOffset":51744,
			"target":34962
		},
		{
			"buffer":0,
			"byteLength":9408,
			"byteOffset":68992,
			"target":34963
		},
		{
			"buffer":0,
			"byteLength":1032,
			"byteOffset":78400,
			"target":34962
		},
		{
			"buffer":0,
			"byteLength":1032,
			"byteOffset":79432,
			"target":34962
		},
		{
			"buffer":0,
			"byteLength":688,
			"byteOffset":80464,
			"target":34962
		},
		{
			"buffer":0,
			"byteLength":732,
			"byteOffset":81152,
			"target":34963
		},
		{
			"buffer":0,
			"byteLength":84,
			"byteOffset":81884,
			"target":34962
		},
		{
			"buffer":0,
			"byteLength":84,
			"byteOffset":81968,
			"target":34962
		},
		{
			"buffer":0,
			"byteLength":56,
			"byteOffset":82052,
			"target":34962
		},
		{
			"buffer":0,
			"byteLength":36,
			"byteOffset":82108,
			"target":34963
		},
		{
			"buffer":0,
			"byteLength":1848,
			"byteOffset":82144,
			"target":34962
		},
		{
			"buffer":0,
			"byteLength":1848,
			"byteOffset":83992,
			"target":34962
		},
		{
			"buffer":0,
			"byteLength":1232,
			"byteOffset":85840,
			"target":34962
		},
		{
			"buffer":0,
			"byteLength":960,
			"byteOffset":87072,
			"target":34963
		},
		{
			"buffer":0,
			"byteLength":696,
			"byteOffset":88032,
			"target":34962
		},
		{
			"buffer":0,
			"byteLength":696,
			"byteOffset":88728,
			"target":34962
		},
		{
			"buffer":0,
			"byteLength":464,
			"byteOffset":89424,
			"target":34962
		},
		{
			"buffer":0,
			"byteLength":232,
			"byteOffset":89888,
			"target":34962
		},
		{
			"buffer":0,
			"byteLength":464,
			"byteOffset":90120,
			"target":34962
		},
		{
			"buffer":0,
			"byteLength":144,
			"byteOffset":90584,
			"target":34963
		},
		{
			"buffer":0,
			"byteLength":756,
			"byteOffset":90728,
			"target":34962
		},
		{
			"buffer":0,
			"byteLength":756,
			"byteOffset":91484,
			"target":34962
		},
		{
			"buffer":0,
			"byteLength":504,
			"byteOffset":92240,
			"target":34962
		},
		{
			"buffer":0,
			"byteLength":480,
			"byteOffset":92744,
			"target":34963
		}
	],
	"samplers":[
		{
			"magFilter":9729,
			"minFilter":9987
		}
	],
	"buffers":[
		{
			"byteLength":93224,
			"uri":"SheepTank.bin"
		}
	]
}
